<?xml version="1.0" encoding="UTF-8"?>
<!-- Generator: visioncortex VTracer 0.6.4 -->
<svg version="1.1" xmlns="http://www.w3.org/2000/svg" width="1200" height="1200">
<path d="M0 0 C14.52 0 29.04 0 44 0 C44 1.32 44 2.64 44 4 C41.36 4 38.72 4 36 4 C40.95 17.53 45.9 31.06 51 45 C53.908125 36.523125 53.908125 36.523125 56.875 27.875 C57.483276 26.102378 58.091553 24.329756 58.718262 22.503418 C59.205424 21.083015 59.692567 19.662605 60.179688 18.242188 C60.428557 17.51717 60.677427 16.792153 60.933838 16.045166 C62.30834 12.036316 63.666469 8.022727 65 4 C62.03 4 59.06 4 56 4 C56 2.68 56 1.36 56 0 C74.48 0 92.96 0 112 0 C112.060586 4.15207 112.121172 8.304141 112.183594 12.582031 C112.234558 15.891613 112.286477 19.201178 112.339043 22.510735 C112.394279 26.004928 112.44783 29.499128 112.497314 32.993408 C112.554163 37.002208 112.61867 41.010854 112.683594 45.019531 C112.700306 46.272727 112.717019 47.525922 112.734238 48.817093 C112.764156 50.558558 112.764156 50.558558 112.794678 52.335205 C112.817994 53.870758 112.817994 53.870758 112.841782 55.437332 C112.897156 58.12008 112.897156 58.12008 114 61 C116.330719 61.418706 116.330719 61.418706 119 61 C122.926444 56.964488 124.105935 53.68448 124.205322 48.161377 C124.225267 47.180587 124.245213 46.199796 124.265762 45.189285 C124.282475 44.132954 124.299187 43.076623 124.316406 41.988281 C124.347578 40.363239 124.347578 40.363239 124.379379 38.705368 C124.444818 35.241144 124.503734 31.776843 124.5625 28.3125 C124.605691 25.965487 124.649305 23.618481 124.693359 21.271484 C124.800494 15.514404 124.902271 9.757247 125 4 C123.02 4 121.04 4 119 4 C119 2.68 119 1.36 119 0 C130.22 0 141.44 0 153 0 C153 21.45 153 42.9 153 65 C155.64 65 158.28 65 161 65 C161 65.99 161 66.98 161 68 C149.78 68 138.56 68 127 68 C126.34 66.35 125.68 64.7 125 63 C123.7625 64.175625 123.7625 64.175625 122.5 65.375 C117.218642 69.741087 110.998294 70.427417 104.300781 70.253906 C98.214666 69.582264 92.148638 67.622768 88 63 C84.166311 55.815561 83.446887 49.334209 83.609375 41.304688 C83.615035 40.231231 83.620695 39.157774 83.626526 38.051788 C83.648726 34.659051 83.698892 31.267412 83.75 27.875 C83.770086 25.559911 83.788333 23.244806 83.804688 20.929688 C83.848537 15.286042 83.917451 9.643207 84 4 C79.38 4 74.76 4 70 4 C69.912263 4.909917 69.824526 5.819834 69.734131 6.757324 C68.932466 12.321532 67.019608 17.564321 65.253906 22.882812 C64.697145 24.58146 64.697145 24.58146 64.129135 26.314423 C63.345886 28.70058 62.559863 31.085828 61.77124 33.470215 C60.564957 37.117571 59.366687 40.76748 58.169922 44.417969 C57.406714 46.739736 56.643057 49.061356 55.878906 51.382812 C55.520512 52.472483 55.162117 53.562154 54.792862 54.684845 C54.455888 55.702953 54.118914 56.72106 53.771729 57.77002 C53.32991 59.107356 53.32991 59.107356 52.879166 60.47171 C51.996747 63.009355 50.997812 65.505471 50 68 C44.06 68 38.12 68 32 68 C30.677815 64.866573 29.355694 61.73318 28.037354 58.598145 C26.878371 55.842511 25.715421 53.088593 24.550537 50.335449 C21.406255 42.881212 18.355728 35.403402 15.453125 27.851562 C14.598671 25.654581 13.742655 23.458213 12.886322 21.261963 C12.338022 19.839694 11.798442 18.414032 11.267731 16.985107 C10.523899 14.983777 9.751555 12.995704 8.972656 11.007812 C8.54219 9.869731 8.111724 8.73165 7.668213 7.559082 C6.190227 4.673621 6.190227 4.673621 2.814209 4.124512 C1.88552 4.083423 0.956831 4.042334 0 4 C0 2.68 0 1.36 0 0 Z " fill="#000000" transform="translate(533,569)"/>
<path d="M0 0 C6.925011 4.125539 11.179414 8.842385 13.514893 16.690186 C14.96607 22.542123 15.271986 28.176617 15.25 34.1875 C15.266113 35.064707 15.282227 35.941914 15.298828 36.845703 C15.305668 46.12755 13.154219 55.576863 6.9375 62.75 C0.0186 68.290633 -5.957699 68.931011 -14.5625 68.9375 C-15.417148 68.949746 -16.271797 68.961992 -17.152344 68.974609 C-17.978633 68.976543 -18.804922 68.978477 -19.65625 68.980469 C-20.40584 68.984578 -21.15543 68.988687 -21.927734 68.99292 C-24.0625 68.75 -24.0625 68.75 -28.0625 66.75 C-28.3925 76.98 -28.7225 87.21 -29.0625 97.75 C-23.1225 97.75 -17.1825 97.75 -11.0625 97.75 C-11.0625 99.07 -11.0625 100.39 -11.0625 101.75 C-28.8825 101.75 -46.7025 101.75 -65.0625 101.75 C-65.0625 100.43 -65.0625 99.11 -65.0625 97.75 C-62.4225 97.75 -59.7825 97.75 -57.0625 97.75 C-57.0625 66.73 -57.0625 35.71 -57.0625 3.75 C-59.7025 3.75 -62.3425 3.75 -65.0625 3.75 C-65.0625 2.43 -65.0625 1.11 -65.0625 -0.25 C-53.5125 -0.25 -41.9625 -0.25 -30.0625 -0.25 C-29.5675 2.72 -29.5675 2.72 -29.0625 5.75 C-28.175625 4.96625 -27.28875 4.1825 -26.375 3.375 C-19.56313 -2.644792 -8.31745 -3.360029 0 0 Z M-22.0625 5.75 C-26.650497 10.129452 -29.093328 14.459109 -29.353027 20.894287 C-29.379615 22.521826 -29.394074 24.149594 -29.398438 25.777344 C-29.405094 26.643881 -29.411751 27.510418 -29.41861 28.403214 C-29.42871 30.231271 -29.433427 32.059366 -29.433105 33.887451 C-29.43748 36.674937 -29.473831 39.460841 -29.511719 42.248047 C-29.517587 44.02864 -29.521556 45.809242 -29.523438 47.589844 C-29.537809 48.418142 -29.55218 49.24644 -29.566986 50.099838 C-29.520728 55.995411 -28.327914 59.484586 -24.0625 63.75 C-21.723053 63.462699 -19.388586 63.130632 -17.0625 62.75 C-14.55732 56.404269 -13.623917 50.912325 -13.699219 44.113281 C-13.69872 43.230208 -13.698222 42.347135 -13.697708 41.437302 C-13.700032 39.586026 -13.709658 37.734747 -13.726318 35.883545 C-13.750026 33.059445 -13.746852 30.236285 -13.740234 27.412109 C-13.745809 25.604161 -13.752917 23.796217 -13.761719 21.988281 C-13.760807 21.150658 -13.759896 20.313034 -13.758957 19.450027 C-13.81462 14.828832 -14.301002 11.099179 -16.0625 6.75 C-18.80461 5.721724 -18.80461 5.721724 -22.0625 5.75 Z " fill="#000000" transform="translate(804.0625,569.25)"/>
<path d="M0 0 C19.37675 17.948924 29.757676 43.335006 31.128906 69.453125 C31.562439 97.879511 20.399726 123.588772 1.003906 144.078125 C-20.219701 164.592308 -46.43446 171.959059 -75.390625 171.664062 C-103.066906 171.019595 -125.553714 156.797068 -144.3125 137.378906 C-163.71637 116.532408 -168.645821 90.127694 -168.007324 62.54541 C-166.924718 37.971412 -153.288307 14.884247 -135.941406 -1.882812 C-96.469733 -37.218619 -38.65984 -34.294171 0 0 Z M-138.878906 11.722656 C-148.375095 23.004676 -155.035073 36.219467 -158.871094 50.453125 C-159.095391 51.248477 -159.319687 52.043828 -159.550781 52.863281 C-164.831856 75.687651 -160.042268 101.221394 -147.734375 120.988281 C-140.141445 132.591845 -131.291292 141.623425 -119.871094 149.453125 C-119.070586 150.008711 -118.270078 150.564297 -117.445312 151.136719 C-98.062617 163.678463 -73.63137 167.317288 -51.121094 163.328125 C-26.514917 157.590242 -4.787047 143.837354 9.353516 122.615234 C22.180791 101.884061 26.750482 75.911784 21.566406 52.078125 C18.682878 40.04247 13.714788 28.280697 6.128906 18.453125 C5.44957 17.561094 4.770234 16.669062 4.070312 15.75 C-11.488225 -3.98804 -32.94676 -16.256132 -57.871094 -19.546875 C-88.818566 -21.759624 -117.918281 -11.838871 -138.878906 11.722656 Z " fill="#000000" transform="translate(342.87109375,536.546875)"/>
<path d="M0 0 C1.06118 0.01136 1.06118 0.01136 2.143799 0.022949 C8.640847 0.228159 12.842235 1.494039 17.636719 5.792969 C23.773495 12.351758 23.405959 20.209528 23.320312 28.621094 C23.317483 29.676599 23.314653 30.732105 23.311737 31.819595 C23.300594 35.171515 23.2755 38.523162 23.25 41.875 C23.239963 44.155595 23.230838 46.436194 23.222656 48.716797 C23.200674 54.290457 23.167255 59.863959 23.125 65.4375 C25.765 65.4375 28.405 65.4375 31.125 65.4375 C31.125 66.7575 31.125 68.0775 31.125 69.4375 C17.265 69.4375 3.405 69.4375 -10.875 69.4375 C-10.875 68.4475 -10.875 67.4575 -10.875 66.4375 C-8.895 66.4375 -6.915 66.4375 -4.875 66.4375 C-4.992494 58.801886 -5.117327 51.166417 -5.247314 43.531006 C-5.290681 40.932401 -5.332355 38.333767 -5.372314 35.735107 C-5.429974 32.004306 -5.493681 28.27365 -5.558594 24.542969 C-5.575306 23.377269 -5.592019 22.211568 -5.609238 21.010544 C-5.639156 19.389203 -5.639156 19.389203 -5.669678 17.735107 C-5.692994 16.306144 -5.692994 16.306144 -5.716782 14.848312 C-5.782181 12.293588 -5.782181 12.293588 -6.875 9.4375 C-9.205719 9.018794 -9.205719 9.018794 -11.875 9.4375 C-17.128601 14.227548 -18.941822 21.500706 -19.307373 28.406494 C-19.348143 30.178277 -19.374054 31.95045 -19.386719 33.722656 C-19.40467 34.664352 -19.422621 35.606047 -19.441116 36.576279 C-19.494811 39.550808 -19.528983 42.525182 -19.5625 45.5 C-19.595709 47.530621 -19.630202 49.561221 -19.666016 51.591797 C-19.750514 56.540251 -19.817518 61.488662 -19.875 66.4375 C-17.895 66.4375 -15.915 66.4375 -13.875 66.4375 C-13.875 67.4275 -13.875 68.4175 -13.875 69.4375 C-27.405 69.4375 -40.935 69.4375 -54.875 69.4375 C-54.875 68.4475 -54.875 67.4575 -54.875 66.4375 C-52.565 66.4375 -50.255 66.4375 -47.875 66.4375 C-47.875 46.3075 -47.875 26.1775 -47.875 5.4375 C-50.185 5.4375 -52.495 5.4375 -54.875 5.4375 C-54.875 4.1175 -54.875 2.7975 -54.875 1.4375 C-43.325 1.4375 -31.775 1.4375 -19.875 1.4375 C-19.38 4.9025 -19.38 4.9025 -18.875 8.4375 C-17.823125 7.292812 -17.823125 7.292812 -16.75 6.125 C-11.597234 1.308284 -6.963279 -0.103794 0 0 Z " fill="#000000" transform="translate(921.875,567.5625)"/>
<path d="M0 0 C11.88 0 23.76 0 36 0 C36 33.99 36 67.98 36 103 C38.64 103 41.28 103 44 103 C44 103.99 44 104.98 44 106 C29.81 106 15.62 106 1 106 C1 105.01 1 104.02 1 103 C3.64 103 6.28 103 9 103 C9 70 9 37 9 3 C6.03 3 3.06 3 0 3 C0 2.01 0 1.02 0 0 Z " fill="#000000" transform="translate(694,531)"/>
<path d="M0 0 C8.090621 8.090621 8 14.288533 8 26 C-4.87 26 -17.74 26 -31 26 C-31.012937 40.685944 -31.012937 40.685944 -26 54 C-22.35798 57.246472 -18.825415 58.119146 -14 58 C-7.911619 57.031628 -3.969161 54.803921 -0.21875 49.917969 C1.602823 47.051327 2.829299 44.186909 4 41 C5.98 41.495 5.98 41.495 8 42 C7.687091 48.101725 4.870735 52.459008 1 57 C-8.477628 64.942789 -20.263552 64.960442 -32 64 C-41.682516 62.481374 -48.71454 58.566727 -55 51 C-61.111691 40.824685 -61.571631 28.113783 -59.351562 16.652344 C-56.447474 7.828382 -50.919431 1.553106 -42.90625 -3.039062 C-29.988935 -9.55066 -11.478054 -9.249057 0 0 Z M-27.6875 -1.875 C-31.338215 3.340307 -31.250871 8.178727 -31.125 14.3125 C-31.115977 15.148457 -31.106953 15.984414 -31.097656 16.845703 C-31.07421 18.89726 -31.038343 20.948668 -31 23 C-27.04 23 -23.08 23 -19 23 C-18.946049 19.583122 -18.90635 16.167096 -18.875 12.75 C-18.858242 11.781914 -18.841484 10.813828 -18.824219 9.816406 C-18.814551 8.414551 -18.814551 8.414551 -18.804688 6.984375 C-18.788977 5.696118 -18.788977 5.696118 -18.772949 4.381836 C-19.02159 1.773512 -19.571716 0.188608 -21 -2 C-23.770293 -3.065497 -25.150664 -3.566224 -27.6875 -1.875 Z " fill="#000000" transform="translate(1014,574)"/>
<path d="M0 0 C1.65 1.32 3.3 2.64 5 4 C3.125 7.875 3.125 7.875 2 9 C1.9175 10.2375 1.835 11.475 1.75 12.75 C1.35372 16.044448 0.938148 17.088092 -1.0625 19.9375 C-4.887744 22.62331 -7.381758 22.621456 -12 23 C-12.66 23.66 -13.32 24.32 -14 25 C-8.39 25.33 -2.78 25.66 3 26 C-0.930712 31.442524 -5.130768 36.423503 -9.65625 41.378906 C-12.737728 44.825026 -15.630605 48.4078 -18.539062 52 C-22.320828 56.610152 -26.214858 61.122326 -30.105469 65.640625 C-30.57501 66.205798 -31.044551 66.770972 -31.52832 67.353271 C-33 69 -33 69 -34.666992 70.383057 C-38.411853 73.759781 -39.352706 76.682216 -39.715927 81.723785 C-39.868277 85.463108 -39.882908 89.195609 -39.875 92.9375 C-39.893144 94.495476 -39.913952 96.053424 -39.9375 97.611328 C-39.994088 101.408813 -39.995743 105.200666 -40 109 C-34.72 109 -29.44 109 -24 109 C-24 111.31 -24 113.62 -24 116 C-37.53 116 -51.06 116 -65 116 C-65 113.69 -65 111.38 -65 109 C-59.39 109 -53.78 109 -48 109 C-47.912406 104.494075 -47.856908 100.008935 -47.87793 95.505127 C-47.876001 93.979608 -47.856605 92.453995 -47.818359 90.928955 C-47.615385 82.339207 -47.72652 76.403873 -53.796875 69.757812 C-55.520106 68.159773 -57.254193 66.573345 -59 65 C-60.489151 63.255002 -61.952159 61.486975 -63.375 59.6875 C-66.84371 55.391448 -70.394424 51.180789 -74 47 C-87.280488 31.579268 -87.280488 31.579268 -91 26 C-90.190912 26.005237 -89.381824 26.010474 -88.548218 26.015869 C-80.897846 26.058271 -73.24886 26.062104 -65.598503 26.023346 C-61.665859 26.004763 -57.734355 26.000741 -53.801758 26.030762 C-50.001517 26.059223 -46.203175 26.048436 -42.40303 26.0112 C-40.958281 26.003792 -39.513389 26.010182 -38.068771 26.031036 C-28.253924 26.174929 -28.253924 26.174929 -20.060547 21.199219 C-17.545316 18.342384 -16.611414 16.621684 -16.8125 12.8125 C-17 9 -17 9 -15 6 C-11.907684 3.938456 -11.392411 3.776056 -7.9375 3.9375 C-3.978983 4.418476 -3.978983 4.418476 -1.5 2 C-1.005 1.34 -0.51 0.68 0 0 Z M-29.5625 39.9375 C-30.503193 40.945869 -30.503193 40.945869 -31.462891 41.974609 C-33.00036 43.629443 -34.509745 45.302721 -36 47 C-37.32 46.34 -38.64 45.68 -40 45 C-40 41 -40 41 -34 34 C-47.53 34 -61.06 34 -75 34 C-71.408392 38.788811 -68.205295 43.028185 -64.1875 47.3125 C-59.222795 52.695915 -54.595221 58.301202 -50 64 C-48.341601 66.007127 -46.672102 68.004265 -45 70 C-41.28601 68.502824 -39.502592 66.445747 -37.0625 63.3125 C-33.263794 58.532672 -29.337878 53.902783 -25.3125 49.3125 C-20.979983 44.354993 -16.830396 39.362555 -13 34 C-21.061154 31.809909 -24.240785 33.862986 -29.5625 39.9375 Z " fill="#000000" transform="translate(318,548)"/>
<path d="M0 0 C11.88 0 23.76 0 36 0 C36 21.45 36 42.9 36 65 C38.64 65 41.28 65 44 65 C44 65.99 44 66.98 44 68 C29.81 68 15.62 68 1 68 C1 67.01 1 66.02 1 65 C3.64 65 6.28 65 9 65 C9 44.87 9 24.74 9 4 C6.03 4 3.06 4 0 4 C0 2.68 0 1.36 0 0 Z " fill="#000000" transform="translate(821,569)"/>
<path d="M0 0 C1.65 0 3.3 0 5 0 C5 83.16 5 166.32 5 252 C3.35 252 1.7 252 0 252 C0 168.84 0 85.68 0 0 Z " fill="#000000" transform="translate(448,474)"/>
<path d="M0 0 C3.348158 2.901737 3.727464 6.443715 4.0625 10.6875 C3.933114 15.474796 2.171917 18.821703 -1.152344 22.164062 C-6.484147 25.601576 -12.916045 24.794721 -19 24 C-22.400233 22.419446 -24.303783 20.392435 -26 17 C-27.189792 5.645982 -27.189792 5.645982 -23.875 1.375 C-16.540569 -4.683878 -8.008198 -4.396658 0 0 Z " fill="#000000" transform="translate(855,536)"/>
</svg>
