<svg version="1.1" id="Layer_1" xmlns="http://www.w3.org/2000/svg" xmlns:xlink="http://www.w3.org/1999/xlink" x="0px" y="0px"
	 width="100%" viewBox="0 0 1200 1200" enable-background="new 0 0 1200 1200" xml:space="preserve">
<path fill="#000000" opacity="1.000000" stroke="none" 
	d="
M1098.000000,1201.000000 
	C732.000000,1201.000000 366.500000,1201.000000 1.000000,1201.000000 
	C1.000000,801.000000 1.000000,401.000000 1.000000,1.000000 
	C401.000000,1.000000 801.000000,1.000000 1201.000000,1.000000 
	C1201.000000,401.000000 1201.000000,801.000000 1201.000000,1201.000000 
	C1166.833374,1201.000000 1132.666626,1201.000000 1098.000000,1201.000000 
M536.384766,573.999573 
	C538.035645,574.921082 540.439575,575.436646 541.196289,576.840332 
	C543.469177,581.056213 545.176758,585.587585 546.966614,590.051392 
	C553.349487,605.970154 559.675232,621.911865 566.084351,638.000000 
	C570.083496,638.000000 573.936584,637.691895 577.718445,638.079590 
	C582.240234,638.543030 584.545166,637.456177 586.015381,632.556030 
	C591.894043,612.962891 598.372437,593.549744 604.588745,574.195068 
	C609.042358,574.195068 613.324707,574.195068 618.000000,574.195068 
	C618.000000,588.172241 618.054626,601.958435 617.983948,615.744019 
	C617.918884,628.440125 622.177002,637.681458 636.012817,639.499023 
	C645.184631,640.703918 653.789429,639.661011 659.782227,631.295166 
	C660.348389,633.521851 660.893982,635.667664 661.424805,637.755493 
	C672.639160,637.755493 683.749146,637.755493 695.377380,637.755493 
	C693.821533,632.765564 689.421387,636.460571 686.880615,634.122192 
	C686.880615,613.084717 686.880615,591.676025 686.880615,570.231689 
	C675.384033,570.231689 664.289429,570.231689 653.241943,570.231689 
	C653.241943,571.558777 653.241943,572.636780 653.241943,574.090698 
	C655.219666,574.090698 656.963623,574.090698 658.999207,574.090698 
	C658.999207,589.935364 659.025513,605.405823 658.954529,620.875793 
	C658.948120,622.273682 658.565918,623.799683 657.922363,625.039978 
	C656.124512,628.504333 654.338501,632.866028 649.540466,631.823608 
	C645.296692,630.901733 646.059998,626.533691 646.041992,623.283264 
	C645.950806,606.785828 646.006775,590.287720 645.986755,573.789795 
	C645.985229,572.536743 645.793762,571.283997 645.702698,570.177551 
	C626.974915,570.177551 608.676453,570.177551 590.031494,570.177551 
	C590.138062,571.563110 590.228943,572.744324 590.346008,574.266235 
	C593.429993,574.266235 596.157043,574.266235 599.354492,574.266235 
	C594.687866,588.260864 590.182312,601.772400 585.676819,615.283936 
	C585.296265,615.180481 584.915710,615.077026 584.535095,614.973572 
	C579.641846,601.472656 574.748596,587.971741 569.695312,574.029297 
	C572.643433,574.029297 575.089844,574.029297 577.684204,574.029297 
	C577.684204,572.523438 577.684204,571.353821 577.684204,570.270996 
	C562.940002,570.270996 548.508484,570.270996 533.951599,570.270996 
	C534.059814,571.524109 534.057617,572.518127 534.283386,573.457275 
	C534.346375,573.719543 535.082092,573.820190 536.384766,573.999573 
M812.026611,575.545044 
	C799.760986,565.395691 787.561096,566.744873 775.154114,576.227356 
	C775.044128,573.910400 774.955383,572.040466 774.871033,570.263000 
	C762.988708,570.263000 751.554626,570.263000 740.278931,570.263000 
	C740.278931,571.611328 740.278931,572.693420 740.278931,573.855896 
	C742.960022,573.976318 745.373047,574.084717 747.732910,574.190735 
	C747.732910,605.636963 747.732910,636.713867 747.732910,667.772888 
	C740.178650,668.231995 740.178650,668.231995 740.507202,671.760620 
	C758.265686,671.760620 776.026062,671.760620 793.762329,671.760620 
	C793.762329,670.443542 793.762329,669.368896 793.762329,667.901855 
	C787.786743,667.901855 782.031799,667.901855 776.000000,667.901855 
	C776.000000,662.374817 776.000000,657.240784 776.000000,652.106689 
	C776.000000,646.893005 776.000000,641.679382 776.000000,636.689026 
	C779.142456,637.525757 781.872803,638.564148 784.689087,638.917236 
	C787.641907,639.287354 790.683289,638.874756 793.675232,639.021912 
	C806.229370,639.639038 815.125732,632.053040 817.915771,621.066223 
	C821.866394,605.509216 821.794678,590.173157 812.026611,575.545044 
M312.494781,702.047424 
	C327.523865,695.866211 340.782257,686.898132 350.943451,674.310974 
	C367.389954,653.937927 376.149017,630.716614 374.045044,604.026917 
	C373.266357,594.148804 371.767670,584.578064 368.128418,575.219360 
	C356.451599,545.191284 335.151184,525.252502 304.929352,515.141541 
	C290.575714,510.339447 275.667023,509.597412 260.353790,511.767303 
	C241.297043,514.467590 224.650558,522.160400 210.478058,534.366150 
	C191.877579,550.385498 180.071396,570.690491 176.912643,595.611145 
	C174.372177,615.653748 176.666382,634.700745 185.436844,653.089417 
	C192.920349,668.779785 204.467438,681.024109 217.971054,691.128601 
	C233.223938,702.541870 250.822937,708.573975 270.216949,709.093140 
	C284.588898,709.477966 298.465118,707.635925 312.494781,702.047424 
M893.464111,570.000000 
	C885.013489,570.000000 876.562805,570.000000 868.277222,570.000000 
	C868.277222,571.609009 868.277222,572.692261 868.277222,574.158508 
	C870.619629,574.158508 872.691101,574.158508 874.745911,574.158508 
	C874.745911,594.626404 874.745911,614.704407 874.745911,634.764282 
	C868.656250,635.148071 868.656250,635.148071 868.433899,637.797729 
	C881.877441,637.797729 895.312195,637.797729 908.747009,637.797729 
	C908.914429,637.295715 909.081787,636.793701 909.249207,636.291626 
	C907.312805,635.667847 905.376465,635.044006 903.000916,634.278748 
	C903.000916,621.173462 902.696899,607.705444 903.139771,594.262085 
	C903.336670,588.285400 905.373291,582.492859 910.201843,578.277954 
	C913.163452,575.692871 916.215271,576.389832 916.935486,580.271851 
	C917.764343,584.739380 917.916016,589.373413 917.956543,593.938721 
	C918.077454,607.551453 918.000000,621.165955 918.000000,634.108276 
	C915.547363,635.018738 913.733459,635.692139 911.919556,636.365479 
	C912.083252,636.842224 912.247009,637.318970 912.410706,637.795715 
	C926.174133,637.795715 939.937561,637.795715 954.016357,637.795715 
	C953.870483,636.377441 953.748901,635.195801 953.608521,633.830627 
	C950.935242,633.830627 948.652283,633.830627 946.000000,633.830627 
	C946.000000,619.153625 946.422974,604.681213 945.768677,590.257629 
	C945.542419,585.268555 943.721252,579.580566 940.737427,575.645813 
	C934.184692,567.004272 924.172058,567.954895 915.014832,569.801636 
	C910.636536,570.684570 906.838684,574.445923 902.731567,576.931641 
	C902.731567,575.002502 902.731567,572.585815 902.731567,570.000000 
	C899.750183,570.000000 897.101257,570.000000 893.464111,570.000000 
M729.290405,532.003967 
	C718.967407,532.002686 708.643799,531.951843 698.322205,532.071960 
	C697.215271,532.084900 696.119995,533.093384 695.019348,533.640137 
	C696.050659,534.093384 697.051208,534.818909 698.120117,534.939941 
	C700.009583,535.153931 701.940674,534.999878 703.718933,534.999878 
	C703.718933,568.710693 703.718933,601.768982 703.718933,634.810791 
	C696.604797,635.172241 696.604797,635.172241 696.507629,637.777222 
	C710.602478,637.777222 724.694702,637.777222 739.333069,637.777222 
	C737.840454,632.734253 733.446716,636.489685 731.000000,634.177673 
	C731.000000,632.942139 731.000000,631.306213 731.000000,629.670288 
	C731.000000,598.867737 731.012024,568.065125 730.968201,537.262634 
	C730.965759,535.526855 730.503967,533.791809 729.290405,532.003967 
M965.554932,631.034729 
	C977.826782,640.467834 991.474182,640.704407 1005.705811,637.042114 
	C1014.695312,634.728821 1019.916077,628.641357 1022.371582,620.014832 
	C1022.691650,618.890442 1021.617371,617.369202 1021.188904,616.031738 
	C1020.176270,616.836365 1018.840027,617.447266 1018.218262,618.485901 
	C1016.922180,620.650696 1016.252808,623.203552 1014.882935,625.308777 
	C1011.006592,631.265930 1004.978455,634.049438 998.256653,633.806519 
	C991.242920,633.553101 986.648560,628.532959 985.277710,622.117981 
	C983.832214,615.353516 984.086304,608.225891 983.568176,600.833313 
	C997.309021,600.833313 1010.044983,600.833313 1023.000000,600.833313 
	C1023.000000,598.478027 1022.991943,596.503784 1023.001343,594.529602 
	C1023.057068,582.796875 1016.922974,573.865906 1006.302917,570.276489 
	C997.627563,567.344421 988.456665,566.782104 979.546265,569.976135 
	C975.362549,571.475830 970.916504,572.836975 967.339600,575.335144 
	C950.104187,587.371948 951.561279,620.558105 965.554932,631.034729 
M831.000000,608.500000 
	C831.000000,617.264648 831.000000,626.029358 831.000000,634.751648 
	C823.641907,635.207703 823.641907,635.207703 823.452271,637.799194 
	C837.544983,637.799194 851.630127,637.799194 866.260132,637.799194 
	C864.898499,632.609070 860.451660,636.565063 857.858765,633.951782 
	C857.858765,613.123901 857.858765,591.613647 857.858765,570.146240 
	C845.704834,570.146240 834.089600,570.146240 822.043274,570.146240 
	C822.112000,571.481812 822.172363,572.655212 822.252319,574.208923 
	C825.346619,574.208923 828.083374,574.208923 831.000000,574.208923 
	C831.000000,585.571472 831.000000,596.535706 831.000000,608.500000 
M454.000000,523.500000 
	C454.000000,507.398407 454.000000,491.296814 454.000000,475.255188 
	C452.079132,475.255188 450.675903,475.255188 449.181335,475.255188 
	C449.181335,559.206299 449.181335,642.903015 449.181335,726.645020 
	C450.873932,726.645020 452.375916,726.645020 454.000000,726.645020 
	C454.000000,659.027771 454.000000,591.763855 454.000000,523.500000 
M832.966553,538.552429 
	C827.932190,544.611267 828.335388,554.901489 834.772217,558.820679 
	C838.164185,560.885925 843.117126,560.668213 847.398315,560.921265 
	C852.739746,561.237061 857.678711,557.614502 858.972717,553.067749 
	C860.868286,546.406738 859.258301,538.917908 854.777405,536.396851 
	C849.665283,533.520752 840.136902,532.130615 832.966553,538.552429 
z"/>
<path fill="#FFFFFF" opacity="1.000000" stroke="none" 
	d="
M535.946960,573.997314 
	C535.082092,573.820190 534.346375,573.719543 534.283386,573.457275 
	C534.057617,572.518127 534.059814,571.524109 533.951599,570.270996 
	C548.508484,570.270996 562.940002,570.270996 577.684204,570.270996 
	C577.684204,571.353821 577.684204,572.523438 577.684204,574.029297 
	C575.089844,574.029297 572.643433,574.029297 569.695312,574.029297 
	C574.748596,587.971741 579.641846,601.472656 584.535095,614.973572 
	C584.915710,615.077026 585.296265,615.180481 585.676819,615.283936 
	C590.182312,601.772400 594.687866,588.260864 599.354492,574.266235 
	C596.157043,574.266235 593.429993,574.266235 590.346008,574.266235 
	C590.228943,572.744324 590.138062,571.563110 590.031494,570.177551 
	C608.676453,570.177551 626.974915,570.177551 645.702698,570.177551 
	C645.793762,571.283997 645.985229,572.536743 645.986755,573.789795 
	C646.006775,590.287720 645.950806,606.785828 646.041992,623.283264 
	C646.059998,626.533691 645.296692,630.901733 649.540466,631.823608 
	C654.338501,632.866028 656.124512,628.504333 657.922363,625.039978 
	C658.565918,623.799683 658.948120,622.273682 658.954529,620.875793 
	C659.025513,605.405823 658.999207,589.935364 658.999207,574.090698 
	C656.963623,574.090698 655.219666,574.090698 653.241943,574.090698 
	C653.241943,572.636780 653.241943,571.558777 653.241943,570.231689 
	C664.289429,570.231689 675.384033,570.231689 686.880615,570.231689 
	C686.880615,591.676025 686.880615,613.084717 686.880615,634.122192 
	C689.421387,636.460571 693.821533,632.765564 695.377380,637.755493 
	C683.749146,637.755493 672.639160,637.755493 661.424805,637.755493 
	C660.893982,635.667664 660.348389,633.521851 659.782227,631.295166 
	C653.789429,639.661011 645.184631,640.703918 636.012817,639.499023 
	C622.177002,637.681458 617.918884,628.440125 617.983948,615.744019 
	C618.054626,601.958435 618.000000,588.172241 618.000000,574.195068 
	C613.324707,574.195068 609.042358,574.195068 604.588745,574.195068 
	C598.372437,593.549744 591.894043,612.962891 586.015381,632.556030 
	C584.545166,637.456177 582.240234,638.543030 577.718445,638.079590 
	C573.936584,637.691895 570.083496,638.000000 566.084351,638.000000 
	C559.675232,621.911865 553.349487,605.970154 546.966614,590.051392 
	C545.176758,585.587585 543.469177,581.056213 541.196289,576.840332 
	C540.439575,575.436646 538.035645,574.921082 535.946960,573.997314 
z"/>
<path fill="#FFFFFF" opacity="1.000000" stroke="none" 
	d="
M812.299744,575.801025 
	C821.794678,590.173157 821.866394,605.509216 817.915771,621.066223 
	C815.125732,632.053040 806.229370,639.639038 793.675232,639.021912 
	C790.683289,638.874756 787.641907,639.287354 784.689087,638.917236 
	C781.872803,638.564148 779.142456,637.525757 776.000000,636.689026 
	C776.000000,641.679382 776.000000,646.893005 776.000000,652.106689 
	C776.000000,657.240784 776.000000,662.374817 776.000000,667.901855 
	C782.031799,667.901855 787.786743,667.901855 793.762329,667.901855 
	C793.762329,669.368896 793.762329,670.443542 793.762329,671.760620 
	C776.026062,671.760620 758.265686,671.760620 740.507202,671.760620 
	C740.178650,668.231995 740.178650,668.231995 747.732910,667.772888 
	C747.732910,636.713867 747.732910,605.636963 747.732910,574.190735 
	C745.373047,574.084717 742.960022,573.976318 740.278931,573.855896 
	C740.278931,572.693420 740.278931,571.611328 740.278931,570.263000 
	C751.554626,570.263000 762.988708,570.263000 774.871033,570.263000 
	C774.955383,572.040466 775.044128,573.910400 775.154114,576.227356 
	C787.561096,566.744873 799.760986,565.395691 812.299744,575.801025 
M789.978271,579.924744 
	C787.061279,574.969543 784.440552,574.535645 780.800903,578.807861 
	C779.177795,580.713074 777.266113,583.164612 777.164001,585.443420 
	C776.551208,599.111084 776.036804,612.811951 776.435425,626.474121 
	C776.525818,629.572449 778.817810,634.441101 783.984985,633.925781 
	C788.828003,633.442810 789.803284,629.647156 790.004761,625.545471 
	C790.334595,618.829163 790.951477,612.111938 790.927490,605.396973 
	C790.898254,597.190857 790.332642,588.986633 789.978271,579.924744 
z"/>
<path fill="#FFFFFF" opacity="1.000000" stroke="none" 
	d="
M312.207489,702.324585 
	C298.465118,707.635925 284.588898,709.477966 270.216949,709.093140 
	C250.822937,708.573975 233.223938,702.541870 217.971054,691.128601 
	C204.467438,681.024109 192.920349,668.779785 185.436844,653.089417 
	C176.666382,634.700745 174.372177,615.653748 176.912643,595.611145 
	C180.071396,570.690491 191.877579,550.385498 210.478058,534.366150 
	C224.650558,522.160400 241.297043,514.467590 260.353790,511.767303 
	C275.667023,509.597412 290.575714,510.339447 304.929352,515.141541 
	C335.151184,525.252502 356.451599,545.191284 368.128418,575.219360 
	C371.767670,584.578064 373.266357,594.148804 374.045044,604.026917 
	C376.149017,630.716614 367.389954,653.937927 350.943451,674.310974 
	C340.782257,686.898132 327.523865,695.866211 312.207489,702.324585 
M276.461792,702.000000 
	C290.331604,702.154602 303.457367,698.672424 315.697174,692.573242 
	C331.974792,684.461914 344.800903,672.574097 354.273010,656.679871 
	C361.311493,644.869324 365.258270,632.224792 366.743317,618.996704 
	C368.051941,607.339844 366.542603,595.681641 363.250366,584.063538 
	C357.100677,562.361694 344.412506,545.488525 326.226288,533.310608 
	C307.104126,520.505859 285.556610,515.414673 262.279968,518.932434 
	C239.262466,522.411072 220.078156,532.480042 205.093201,550.391418 
	C187.496826,571.424133 180.060638,595.436890 184.016922,622.713440 
	C187.290497,645.283081 197.291504,664.201721 214.662872,679.231995 
	C232.172516,694.381897 252.414108,701.885071 276.461792,702.000000 
z"/>
<path fill="#FFFFFF" opacity="1.000000" stroke="none" 
	d="
M893.958191,570.000000 
	C897.101257,570.000000 899.750183,570.000000 902.731567,570.000000 
	C902.731567,572.585815 902.731567,575.002502 902.731567,576.931641 
	C906.838684,574.445923 910.636536,570.684570 915.014832,569.801636 
	C924.172058,567.954895 934.184692,567.004272 940.737427,575.645813 
	C943.721252,579.580566 945.542419,585.268555 945.768677,590.257629 
	C946.422974,604.681213 946.000000,619.153625 946.000000,633.830627 
	C948.652283,633.830627 950.935242,633.830627 953.608521,633.830627 
	C953.748901,635.195801 953.870483,636.377441 954.016357,637.795715 
	C939.937561,637.795715 926.174133,637.795715 912.410706,637.795715 
	C912.247009,637.318970 912.083252,636.842224 911.919556,636.365479 
	C913.733459,635.692139 915.547363,635.018738 918.000000,634.108276 
	C918.000000,621.165955 918.077454,607.551453 917.956543,593.938721 
	C917.916016,589.373413 917.764343,584.739380 916.935486,580.271851 
	C916.215271,576.389832 913.163452,575.692871 910.201843,578.277954 
	C905.373291,582.492859 903.336670,588.285400 903.139771,594.262085 
	C902.696899,607.705444 903.000916,621.173462 903.000916,634.278748 
	C905.376465,635.044006 907.312805,635.667847 909.249207,636.291626 
	C909.081787,636.793701 908.914429,637.295715 908.747009,637.797729 
	C895.312195,637.797729 881.877441,637.797729 868.433899,637.797729 
	C868.656250,635.148071 868.656250,635.148071 874.745911,634.764282 
	C874.745911,614.704407 874.745911,594.626404 874.745911,574.158508 
	C872.691101,574.158508 870.619629,574.158508 868.277222,574.158508 
	C868.277222,572.692261 868.277222,571.609009 868.277222,570.000000 
	C876.562805,570.000000 885.013489,570.000000 893.958191,570.000000 
z"/>
<path fill="#FFFFFF" opacity="1.000000" stroke="none" 
	d="
M729.773193,532.030151 
	C730.503967,533.791809 730.965759,535.526855 730.968201,537.262634 
	C731.012024,568.065125 731.000000,598.867737 731.000000,629.670288 
	C731.000000,631.306213 731.000000,632.942139 731.000000,634.177673 
	C733.446716,636.489685 737.840454,632.734253 739.333069,637.777222 
	C724.694702,637.777222 710.602478,637.777222 696.507629,637.777222 
	C696.604797,635.172241 696.604797,635.172241 703.718933,634.810791 
	C703.718933,601.768982 703.718933,568.710693 703.718933,534.999878 
	C701.940674,534.999878 700.009583,535.153931 698.120117,534.939941 
	C697.051208,534.818909 696.050659,534.093384 695.019348,533.640137 
	C696.119995,533.093384 697.215271,532.084900 698.322205,532.071960 
	C708.643799,531.951843 718.967407,532.002686 729.773193,532.030151 
z"/>
<path fill="#FFFFFF" opacity="1.000000" stroke="none" 
	d="
M965.289795,630.786743 
	C951.561279,620.558105 950.104187,587.371948 967.339600,575.335144 
	C970.916504,572.836975 975.362549,571.475830 979.546265,569.976135 
	C988.456665,566.782104 997.627563,567.344421 1006.302917,570.276489 
	C1016.922974,573.865906 1023.057068,582.796875 1023.001343,594.529602 
	C1022.991943,596.503784 1023.000000,598.478027 1023.000000,600.833313 
	C1010.044983,600.833313 997.309021,600.833313 983.568176,600.833313 
	C984.086304,608.225891 983.832214,615.353516 985.277710,622.117981 
	C986.648560,628.532959 991.242920,633.553101 998.256653,633.806519 
	C1004.978455,634.049438 1011.006592,631.265930 1014.882935,625.308777 
	C1016.252808,623.203552 1016.922180,620.650696 1018.218262,618.485901 
	C1018.840027,617.447266 1020.176270,616.836365 1021.188904,616.031738 
	C1021.617371,617.369202 1022.691650,618.890442 1022.371582,620.014832 
	C1019.916077,628.641357 1014.695312,634.728821 1005.705811,637.042114 
	C991.474182,640.704407 977.826782,640.467834 965.289795,630.786743 
M996.000000,583.650513 
	C995.995483,581.821716 996.608887,579.661743 995.846375,578.239258 
	C994.598389,575.911072 992.455261,574.062683 990.689697,572.011902 
	C988.973328,573.652649 986.099426,575.079102 985.748718,576.972778 
	C984.488159,583.779114 984.079773,590.743286 983.339172,597.744080 
	C988.262390,597.744080 991.995789,597.744080 996.000000,597.744080 
	C996.000000,593.197937 996.000000,588.904663 996.000000,583.650513 
z"/>
<path fill="#FFFFFF" opacity="1.000000" stroke="none" 
	d="
M831.000000,608.000000 
	C831.000000,596.535706 831.000000,585.571472 831.000000,574.208923 
	C828.083374,574.208923 825.346619,574.208923 822.252319,574.208923 
	C822.172363,572.655212 822.112000,571.481812 822.043274,570.146240 
	C834.089600,570.146240 845.704834,570.146240 857.858765,570.146240 
	C857.858765,591.613647 857.858765,613.123901 857.858765,633.951782 
	C860.451660,636.565063 864.898499,632.609070 866.260132,637.799194 
	C851.630127,637.799194 837.544983,637.799194 823.452271,637.799194 
	C823.641907,635.207703 823.641907,635.207703 831.000000,634.751648 
	C831.000000,626.029358 831.000000,617.264648 831.000000,608.000000 
z"/>
<path fill="#FFFFFF" opacity="1.000000" stroke="none" 
	d="
M454.000000,524.000000 
	C454.000000,591.763855 454.000000,659.027771 454.000000,726.645020 
	C452.375916,726.645020 450.873932,726.645020 449.181335,726.645020 
	C449.181335,642.903015 449.181335,559.206299 449.181335,475.255188 
	C450.675903,475.255188 452.079132,475.255188 454.000000,475.255188 
	C454.000000,491.296814 454.000000,507.398407 454.000000,524.000000 
z"/>
<path fill="#FFFFFF" opacity="1.000000" stroke="none" 
	d="
M833.238953,538.273315 
	C840.136902,532.130615 849.665283,533.520752 854.777405,536.396851 
	C859.258301,538.917908 860.868286,546.406738 858.972717,553.067749 
	C857.678711,557.614502 852.739746,561.237061 847.398315,560.921265 
	C843.117126,560.668213 838.164185,560.885925 834.772217,558.820679 
	C828.335388,554.901489 827.932190,544.611267 833.238953,538.273315 
z"/>
<path fill="#000000" opacity="1.000000" stroke="none" 
	d="
M789.988647,580.353149 
	C790.332642,588.986633 790.898254,597.190857 790.927490,605.396973 
	C790.951477,612.111938 790.334595,618.829163 790.004761,625.545471 
	C789.803284,629.647156 788.828003,633.442810 783.984985,633.925781 
	C778.817810,634.441101 776.525818,629.572449 776.435425,626.474121 
	C776.036804,612.811951 776.551208,599.111084 777.164001,585.443420 
	C777.266113,583.164612 779.177795,580.713074 780.800903,578.807861 
	C784.440552,574.535645 787.061279,574.969543 789.988647,580.353149 
z"/>
<path fill="#000000" opacity="1.000000" stroke="none" 
	d="
M275.974152,702.000000 
	C252.414108,701.885071 232.172516,694.381897 214.662872,679.231995 
	C197.291504,664.201721 187.290497,645.283081 184.016922,622.713440 
	C180.060638,595.436890 187.496826,571.424133 205.093201,550.391418 
	C220.078156,532.480042 239.262466,522.411072 262.279968,518.932434 
	C285.556610,515.414673 307.104126,520.505859 326.226288,533.310608 
	C344.412506,545.488525 357.100677,562.361694 363.250366,584.063538 
	C366.542603,595.681641 368.051941,607.339844 366.743317,618.996704 
	C365.258270,632.224792 361.311493,644.869324 354.273010,656.679871 
	C344.800903,672.574097 331.974792,684.461914 315.697174,692.573242 
	C303.457367,698.672424 290.331604,702.154602 275.974152,702.000000 
M280.212341,624.223572 
	C294.047394,607.983398 307.882477,591.743225 322.216675,574.917114 
	C315.809509,574.917114 310.135559,574.917114 304.461609,574.917114 
	C304.335175,574.335693 304.208710,573.754333 304.082245,573.172913 
	C306.632721,572.448608 309.157104,571.245728 311.739380,571.104797 
	C316.380066,570.851685 318.664642,568.135986 319.945770,564.283142 
	C321.103333,560.801941 321.837830,557.180054 322.883331,553.139221 
	C322.221375,552.518921 320.622833,551.020935 319.027527,549.525940 
	C315.572845,552.898926 315.572845,552.898926 310.214752,553.000000 
	C304.735992,553.103394 301.589142,556.412781 302.097595,562.240356 
	C302.341431,565.034485 301.584259,566.731873 299.814606,568.914612 
	C295.771637,573.901245 291.041534,575.644775 284.722748,575.115479 
	C278.434387,574.588684 272.067413,575.000000 265.734924,575.000000 
	C253.315079,575.000000 240.895218,575.000000 227.674820,575.000000 
	C231.709808,579.478027 235.290771,583.247314 238.641586,587.211121 
	C247.073303,597.185181 255.437927,607.216736 263.748657,617.291931 
	C266.299530,620.384399 270.358337,623.532349 270.666077,626.931946 
	C271.588318,637.121338 270.997925,647.447632 270.997925,658.105103 
	C265.082947,658.105103 259.659576,658.105103 254.248108,658.105103 
	C254.248108,660.574097 254.248108,662.644775 254.248108,664.753662 
	C267.911743,664.753662 281.325958,664.753662 294.754883,664.753662 
	C294.754883,662.427490 294.754883,660.356934 294.754883,657.898071 
	C289.438141,657.898071 284.352020,657.898071 279.000000,657.898071 
	C279.000000,653.032593 278.913849,648.561096 279.020538,644.094299 
	C279.173676,637.683105 279.467346,631.275146 280.212341,624.223572 
z"/>
<path fill="#000000" opacity="1.000000" stroke="none" 
	d="
M996.000000,584.130920 
	C996.000000,588.904663 996.000000,593.197937 996.000000,597.744080 
	C991.995789,597.744080 988.262390,597.744080 983.339172,597.744080 
	C984.079773,590.743286 984.488159,583.779114 985.748718,576.972778 
	C986.099426,575.079102 988.973328,573.652649 990.689697,572.011902 
	C992.455261,574.062683 994.598389,575.911072 995.846375,578.239258 
	C996.608887,579.661743 995.995483,581.821716 996.000000,584.130920 
z"/>
<path fill="#FFFFFF" opacity="1.000000" stroke="none" 
	d="
M279.956696,624.544678 
	C279.467346,631.275146 279.173676,637.683105 279.020538,644.094299 
	C278.913849,648.561096 279.000000,653.032593 279.000000,657.898071 
	C284.352020,657.898071 289.438141,657.898071 294.754883,657.898071 
	C294.754883,660.356934 294.754883,662.427490 294.754883,664.753662 
	C281.325958,664.753662 267.911743,664.753662 254.248108,664.753662 
	C254.248108,662.644775 254.248108,660.574097 254.248108,658.105103 
	C259.659576,658.105103 265.082947,658.105103 270.997925,658.105103 
	C270.997925,647.447632 271.588318,637.121338 270.666077,626.931946 
	C270.358337,623.532349 266.299530,620.384399 263.748657,617.291931 
	C255.437927,607.216736 247.073303,597.185181 238.641586,587.211121 
	C235.290771,583.247314 231.709808,579.478027 227.674820,575.000000 
	C240.895218,575.000000 253.315079,575.000000 265.734924,575.000000 
	C272.067413,575.000000 278.434387,574.588684 284.722748,575.115479 
	C291.041534,575.644775 295.771637,573.901245 299.814606,568.914612 
	C301.584259,566.731873 302.341431,565.034485 302.097595,562.240356 
	C301.589142,556.412781 304.735992,553.103394 310.214752,553.000000 
	C315.572845,552.898926 315.572845,552.898926 319.027527,549.525940 
	C320.622833,551.020935 322.221375,552.518921 322.883331,553.139221 
	C321.837830,557.180054 321.103333,560.801941 319.945770,564.283142 
	C318.664642,568.135986 316.380066,570.851685 311.739380,571.104797 
	C309.157104,571.245728 306.632721,572.448608 304.082245,573.172913 
	C304.208710,573.754333 304.335175,574.335693 304.461609,574.917114 
	C310.135559,574.917114 315.809509,574.917114 322.216675,574.917114 
	C307.882477,591.743225 294.047394,607.983398 279.956696,624.544678 
M281.040283,596.550964 
	C279.204254,595.423950 277.368225,594.296936 274.502777,592.538086 
	C279.123993,588.500732 281.935638,586.044434 285.206787,583.186584 
	C271.169525,583.186584 257.831390,583.186584 244.150177,583.186584 
	C254.553421,595.415222 264.719574,607.365173 275.094727,619.560791 
	C280.459045,613.088074 285.387573,607.028137 290.441620,601.074707 
	C295.487671,595.130676 300.659454,589.293396 305.609283,583.601135 
	C299.679596,580.777954 295.570862,583.128418 291.719818,587.620117 
	C288.756073,591.076965 285.021820,593.873169 281.040283,596.550964 
z"/>
<path fill="#000000" opacity="1.000000" stroke="none" 
	d="
M281.335236,596.757080 
	C285.021820,593.873169 288.756073,591.076965 291.719818,587.620117 
	C295.570862,583.128418 299.679596,580.777954 305.609283,583.601135 
	C300.659454,589.293396 295.487671,595.130676 290.441620,601.074707 
	C285.387573,607.028137 280.459045,613.088074 275.094727,619.560791 
	C264.719574,607.365173 254.553421,595.415222 244.150177,583.186584 
	C257.831390,583.186584 271.169525,583.186584 285.206787,583.186584 
	C281.935638,586.044434 279.123993,588.500732 274.502777,592.538086 
	C277.368225,594.296936 279.204254,595.423950 281.335236,596.757080 
z"/>
</svg>